<svg xmlns="http://www.w3.org/2000/svg" xmlns:xlink="http://www.w3.org/1999/xlink" width="500" zoomAndPan="magnify" viewBox="0 0 375 374.999991" height="500" preserveAspectRatio="xMidYMid meet" version="1.0"><path fill="#f8d568" d="M 187.5 286.03125 L 102.171875 236.773438 L 102.171875 138.238281 L 187.5 88.984375 L 272.828125 138.238281 L 272.832031 236.769531 Z M 114.269531 229.792969 L 187.5 272.066406 L 260.734375 229.785156 L 260.730469 145.21875 L 187.5 102.949219 L 114.269531 145.21875 Z M 114.269531 229.792969 " fill-opacity="1" fill-rule="nonzero"/><path fill="#f8d568" d="M 187.5 194.484375 L 105.199219 146.964844 L 111.246094 136.492188 L 187.5 180.515625 L 263.757812 136.492188 L 269.808594 146.964844 Z M 187.5 194.484375 " fill-opacity="1" fill-rule="nonzero"/><path fill="#f8d568" d="M 181.453125 187.5 L 193.550781 187.5 L 193.550781 279.050781 L 181.453125 279.050781 Z M 181.453125 187.5 " fill-opacity="1" fill-rule="nonzero"/><path fill="#f8d568" d="M 105.195312 146.964844 L 83.710938 134.5625 L 58.902344 134.5625 L 58.902344 122.464844 L 86.953125 122.464844 L 111.242188 136.492188 Z M 105.195312 146.964844 " fill-opacity="1" fill-rule="nonzero"/><path fill="#f8d568" d="M 269.804688 146.964844 L 263.757812 136.492188 L 288.046875 122.464844 L 316.097656 122.464844 L 316.097656 134.5625 L 291.289062 134.5625 Z M 269.804688 146.964844 " fill-opacity="1" fill-rule="nonzero"/><path fill="#f8d568" d="M 316.097656 252.539062 L 288.046875 252.539062 L 263.757812 238.515625 L 269.804688 228.039062 L 291.289062 240.445312 L 316.097656 240.445312 Z M 316.097656 252.539062 " fill-opacity="1" fill-rule="nonzero"/><path fill="#f8d568" d="M 86.953125 252.539062 L 58.902344 252.539062 L 58.902344 240.445312 L 83.710938 240.445312 L 105.195312 228.039062 L 111.242188 238.515625 Z M 86.953125 252.539062 " fill-opacity="1" fill-rule="nonzero"/><path fill="#f8d568" d="M 181.453125 58.902344 L 193.550781 58.902344 L 193.550781 95.964844 L 181.453125 95.964844 Z M 181.453125 58.902344 " fill-opacity="1" fill-rule="nonzero"/><path fill="#f8d568" d="M 181.453125 279.050781 L 193.550781 279.050781 L 193.550781 316.113281 L 181.453125 316.113281 Z M 181.453125 279.050781 " fill-opacity="1" fill-rule="nonzero"/><path fill="#f8d568" d="M 58.902344 46.132812 L 72.34375 46.132812 L 72.34375 58.230469 L 58.902344 58.230469 Z M 58.902344 46.132812 " fill-opacity="1" fill-rule="nonzero"/><path fill="#f8d568" d="M 302.65625 46.132812 L 316.097656 46.132812 L 316.097656 58.230469 L 302.65625 58.230469 Z M 302.65625 46.132812 " fill-opacity="1" fill-rule="nonzero"/><path fill="#f8d568" d="M 58.902344 316.78125 L 72.34375 316.78125 L 72.34375 328.878906 L 58.902344 328.878906 Z M 58.902344 316.78125 " fill-opacity="1" fill-rule="nonzero"/><path fill="#f8d568" d="M 302.65625 316.78125 L 316.097656 316.78125 L 316.097656 328.878906 L 302.65625 328.878906 Z M 302.65625 316.78125 " fill-opacity="1" fill-rule="nonzero"/><path fill="#f8d568" d="M 219.980469 64.953125 L 155.027344 64.953125 L 155.027344 0 L 219.980469 0 Z M 167.121094 52.855469 L 207.882812 52.855469 L 207.882812 12.097656 L 167.121094 12.097656 Z M 167.121094 52.855469 " fill-opacity="1" fill-rule="nonzero"/><path fill="#f8d568" d="M 219.980469 375 L 155.027344 375 L 155.027344 310.046875 L 219.980469 310.046875 Z M 167.121094 362.90625 L 207.882812 362.90625 L 207.882812 322.144531 L 167.121094 322.144531 Z M 167.121094 362.90625 " fill-opacity="1" fill-rule="nonzero"/><path fill="#f8d568" d="M 64.953125 160.324219 L 0 160.324219 L 0 95.371094 L 64.953125 95.371094 Z M 12.097656 148.226562 L 52.855469 148.226562 L 52.855469 107.46875 L 12.097656 107.46875 Z M 12.097656 148.226562 " fill-opacity="1" fill-rule="nonzero"/><path fill="#f8d568" d="M 64.953125 279.632812 L 0 279.632812 L 0 214.679688 L 64.953125 214.679688 Z M 12.097656 267.535156 L 52.855469 267.535156 L 52.855469 226.78125 L 12.097656 226.78125 Z M 12.097656 267.535156 " fill-opacity="1" fill-rule="nonzero"/><path fill="#f8d568" d="M 375 160.324219 L 310.046875 160.324219 L 310.046875 95.371094 L 375 95.371094 Z M 322.144531 148.226562 L 362.90625 148.226562 L 362.90625 107.46875 L 322.144531 107.46875 Z M 322.144531 148.226562 " fill-opacity="1" fill-rule="nonzero"/><path fill="#f8d568" d="M 375 279.632812 L 310.046875 279.632812 L 310.046875 214.679688 L 375 214.679688 Z M 322.144531 267.535156 L 362.90625 267.535156 L 362.90625 226.78125 L 322.144531 226.78125 Z M 322.144531 267.535156 " fill-opacity="1" fill-rule="nonzero"/></svg>