<svg xmlns="http://www.w3.org/2000/svg" xmlns:xlink="http://www.w3.org/1999/xlink" width="500" zoomAndPan="magnify" viewBox="0 0 375 374.999991" height="500" preserveAspectRatio="xMidYMid meet" version="1.0"><defs><clipPath id="f10592c9b3"><path d="M 10.230469 0 L 365.558594 0 L 365.558594 375 L 10.230469 375 Z M 10.230469 0 " clip-rule="nonzero"/></clipPath></defs><g clip-path="url(#f10592c9b3)"><path fill="#f8d568" d="M 185.527344 256.679688 C 157.398438 256.679688 136.304688 246.160156 136.304688 236.171875 L 136.304688 217.429688 C 159.734375 234.441406 211.355469 234.441406 234.816406 217.429688 L 234.816406 236.171875 C 234.816406 246.160156 213.6875 256.679688 185.527344 256.679688 Z M 216.621094 333.984375 L 216.621094 363.28125 L 154.46875 363.28125 L 154.46875 333.984375 Z M 124.574219 119.617188 L 124.574219 188.730469 L 81.75 188.730469 C 48.320312 188.730469 21.359375 161.796875 21.359375 128.40625 C 21.359375 99.109375 42.457031 74.507812 70.617188 69.246094 C 70.015625 75.105469 69.449219 81.53125 70.015625 87.992188 C 70.617188 90.921875 72.949219 93.25 75.882812 93.25 L 76.484375 93.25 C 79.414062 92.652344 81.75 90.320312 81.75 86.824219 C 78.816406 49.90625 104.609375 14.183594 146.835938 11.820312 C 177.929688 10.652344 204.289062 28.230469 214.253906 57.527344 C 215.421875 61.023438 220.121094 62.789062 223.085938 60.457031 C 262.945312 31.160156 311.035156 76.871094 289.90625 117.851562 C 288.175781 120.78125 289.339844 124.3125 292.238281 125.476562 C 295.207031 127.242188 298.707031 126.042969 299.90625 123.148438 C 303.40625 116.6875 305.171875 109.664062 305.738281 102.640625 C 332.132812 99.710938 353.261719 120.183594 353.261719 145.386719 C 353.261719 168.824219 333.898438 188.132812 310.4375 188.132812 L 246.515625 188.132812 L 246.515625 118.453125 C 245.949219 100.273438 220.121094 86.824219 185.527344 86.824219 C 150.933594 87.390625 124.574219 100.875 124.574219 119.617188 Z M 136.304688 119.617188 C 136.304688 110.230469 157.398438 99.109375 185.527344 99.109375 C 213.6875 99.109375 234.816406 109.664062 234.816406 119.617188 C 234.816406 128.972656 213.6875 140.125 185.527344 140.125 C 157.398438 139.527344 136.304688 128.972656 136.304688 119.617188 Z M 234.816406 160.601562 C 234.816406 169.988281 213.6875 181.109375 185.527344 181.109375 C 157.398438 181.109375 136.304688 170.585938 136.304688 160.601562 L 136.304688 138.925781 C 159.734375 155.9375 211.355469 155.9375 234.816406 138.925781 Z M 234.816406 198.6875 C 234.816406 208.042969 213.6875 218.628906 185.527344 218.628906 C 157.398438 218.628906 136.304688 208.042969 136.304688 198.6875 L 136.304688 179.941406 C 159.734375 196.921875 211.355469 196.921875 234.816406 179.941406 Z M 343.863281 333.984375 L 343.863281 363.28125 L 281.707031 363.28125 L 281.707031 333.984375 Z M 89.378906 333.984375 L 89.378906 363.28125 L 27.226562 363.28125 L 27.226562 333.984375 Z M 246.550781 236.171875 L 246.550781 199.851562 L 311.035156 199.851562 C 340.929688 199.851562 365.558594 175.25 365.558594 145.386719 C 365.558594 113.757812 338.5625 88.554688 306.335938 90.921875 C 302.804688 51.070312 258.246094 27.632812 222.488281 46.976562 C 208.988281 16.511719 179.695312 -1.632812 146.269531 0.132812 C 111.675781 1.863281 83.515625 23.539062 73.550781 56.328125 C 37.789062 61.023438 10.230469 91.484375 10.230469 128.40625 C 10.230469 168.222656 42.488281 200.449219 82.347656 200.449219 L 125.140625 200.449219 L 125.140625 236.773438 C 125.140625 253.75 148.601562 267.199219 180.261719 268.398438 L 180.261719 288.308594 L 58.320312 288.308594 C 54.785156 288.308594 52.453125 290.671875 52.453125 294.167969 L 52.453125 322.265625 L 21.359375 322.265625 C 17.859375 322.265625 15.496094 324.628906 15.496094 328.125 L 15.496094 369.140625 C 15.496094 372.636719 17.859375 375 21.359375 375 L 95.246094 375 C 98.777344 375 101.109375 372.636719 101.109375 369.140625 L 101.109375 328.125 C 101.109375 324.628906 98.777344 322.265625 95.246094 322.265625 L 64.183594 322.265625 L 64.183594 299.460938 L 179.695312 299.460938 L 179.695312 322.265625 L 148.601562 322.265625 C 145.101562 322.265625 142.738281 324.628906 142.738281 328.125 L 142.738281 369.140625 C 142.738281 372.636719 145.101562 375 148.601562 375 L 222.488281 375 C 226.019531 375 228.351562 372.636719 228.351562 369.140625 L 228.351562 328.125 C 228.351562 324.628906 226.019531 322.265625 222.488281 322.265625 L 191.425781 322.265625 L 191.425781 299.460938 L 306.9375 299.460938 L 306.9375 322.265625 L 275.84375 322.265625 C 272.3125 322.265625 269.976562 324.628906 269.976562 328.125 L 269.976562 369.140625 C 269.976562 372.636719 272.3125 375 275.84375 375 L 349.730469 375 C 353.261719 375 355.59375 372.636719 355.59375 369.140625 L 355.59375 328.125 C 355.59375 324.628906 353.261719 322.265625 349.730469 322.265625 L 318.667969 322.265625 L 318.667969 293.601562 C 318.667969 290.074219 316.300781 287.742188 312.804688 287.742188 L 191.394531 287.742188 L 191.394531 267.800781 C 223.085938 266.636719 246.550781 253.75 246.550781 236.171875 " fill-opacity="1" fill-rule="nonzero"/></g></svg>