<svg xmlns="http://www.w3.org/2000/svg" xmlns:xlink="http://www.w3.org/1999/xlink" width="500" zoomAndPan="magnify" viewBox="0 0 375 374.999991" height="500" preserveAspectRatio="xMidYMid meet" version="1.0"><defs><clipPath id="00d5a077be"><path d="M 17.8125 1 L 357 1 L 357 375 L 17.8125 375 Z M 17.8125 1 " clip-rule="nonzero"/></clipPath></defs><g clip-path="url(#00d5a077be)"><path fill="#f8d568" d="M 330.578125 250.578125 L 351.960938 263.386719 C 352.289062 263.585938 352.601562 263.800781 352.902344 264.039062 C 353.203125 264.273438 353.488281 264.53125 353.753906 264.804688 C 354.019531 265.078125 354.269531 265.367188 354.5 265.671875 C 354.730469 265.976562 354.941406 266.296875 355.128906 266.628906 C 355.316406 266.960938 355.484375 267.304688 355.628906 267.660156 C 355.773438 268.015625 355.894531 268.375 355.992188 268.746094 C 356.089844 269.117188 356.160156 269.488281 356.210938 269.867188 C 356.261719 270.25 356.285156 270.628906 356.285156 271.011719 C 356.285156 271.394531 356.261719 271.773438 356.210938 272.152344 C 356.160156 272.53125 356.089844 272.90625 355.992188 273.277344 C 355.894531 273.644531 355.773438 274.007812 355.628906 274.363281 C 355.484375 274.714844 355.316406 275.058594 355.128906 275.390625 C 354.9375 275.726562 354.730469 276.042969 354.5 276.347656 C 354.269531 276.65625 354.019531 276.945312 353.753906 277.21875 C 353.488281 277.492188 353.203125 277.746094 352.902344 277.984375 C 352.601562 278.222656 352.289062 278.4375 351.960938 278.632812 L 195.957031 372.128906 C 194.574219 372.960938 193.105469 373.589844 191.550781 374.023438 C 189.996094 374.453125 188.410156 374.667969 186.796875 374.667969 C 185.183594 374.667969 183.601562 374.453125 182.042969 374.023438 C 180.488281 373.589844 179.019531 372.960938 177.636719 372.128906 L 21.636719 278.632812 C 21.308594 278.4375 20.992188 278.21875 20.695312 277.984375 C 20.394531 277.746094 20.109375 277.492188 19.84375 277.21875 C 19.574219 276.945312 19.324219 276.65625 19.097656 276.347656 C 18.867188 276.042969 18.65625 275.726562 18.46875 275.390625 C 18.277344 275.058594 18.113281 274.714844 17.96875 274.363281 C 17.824219 274.007812 17.703125 273.644531 17.605469 273.277344 C 17.507812 272.90625 17.433594 272.53125 17.386719 272.152344 C 17.335938 271.773438 17.3125 271.394531 17.3125 271.011719 C 17.3125 270.628906 17.335938 270.246094 17.386719 269.867188 C 17.433594 269.488281 17.507812 269.117188 17.605469 268.746094 C 17.703125 268.375 17.824219 268.015625 17.96875 267.660156 C 18.113281 267.304688 18.277344 266.960938 18.46875 266.628906 C 18.65625 266.296875 18.867188 265.976562 19.097656 265.671875 C 19.324219 265.367188 19.574219 265.078125 19.84375 264.804688 C 20.109375 264.53125 20.394531 264.273438 20.695312 264.039062 C 20.992188 263.800781 21.308594 263.585938 21.636719 263.386719 L 43.019531 250.578125 L 186.796875 336.753906 Z M 330.578125 167.066406 L 351.960938 179.878906 C 352.289062 180.074219 352.601562 180.289062 352.902344 180.527344 C 353.203125 180.765625 353.488281 181.019531 353.753906 181.292969 C 354.019531 181.566406 354.269531 181.855469 354.5 182.160156 C 354.730469 182.46875 354.941406 182.785156 355.128906 183.117188 C 355.316406 183.453125 355.484375 183.792969 355.628906 184.148438 C 355.773438 184.503906 355.894531 184.863281 355.992188 185.234375 C 356.089844 185.605469 356.160156 185.980469 356.210938 186.359375 C 356.261719 186.738281 356.285156 187.117188 356.285156 187.5 C 356.285156 187.882812 356.261719 188.261719 356.210938 188.640625 C 356.160156 189.019531 356.089844 189.394531 355.992188 189.765625 C 355.894531 190.136719 355.773438 190.496094 355.628906 190.851562 C 355.484375 191.203125 355.316406 191.546875 355.128906 191.882812 C 354.9375 192.214844 354.730469 192.53125 354.5 192.839844 C 354.269531 193.144531 354.019531 193.433594 353.753906 193.707031 C 353.488281 193.980469 353.203125 194.234375 352.902344 194.472656 C 352.601562 194.710938 352.289062 194.925781 351.960938 195.121094 L 186.796875 294.109375 L 21.636719 195.121094 C 21.308594 194.925781 20.996094 194.710938 20.695312 194.472656 C 20.394531 194.234375 20.109375 193.980469 19.84375 193.707031 C 19.574219 193.433594 19.324219 193.144531 19.097656 192.839844 C 18.867188 192.53125 18.65625 192.214844 18.46875 191.882812 C 18.277344 191.546875 18.113281 191.203125 17.96875 190.851562 C 17.824219 190.496094 17.703125 190.136719 17.605469 189.765625 C 17.507812 189.394531 17.433594 189.019531 17.386719 188.640625 C 17.335938 188.261719 17.3125 187.882812 17.3125 187.5 C 17.3125 187.117188 17.335938 186.738281 17.386719 186.359375 C 17.433594 185.980469 17.507812 185.605469 17.605469 185.234375 C 17.703125 184.863281 17.824219 184.503906 17.96875 184.148438 C 18.113281 183.792969 18.277344 183.453125 18.46875 183.117188 C 18.65625 182.785156 18.867188 182.46875 19.097656 182.160156 C 19.324219 181.855469 19.574219 181.566406 19.84375 181.292969 C 20.109375 181.019531 20.394531 180.765625 20.695312 180.527344 C 20.996094 180.289062 21.308594 180.074219 21.636719 179.878906 L 43.019531 167.066406 L 186.796875 253.242188 Z M 195.941406 3.757812 L 351.960938 97.253906 C 352.289062 97.449219 352.601562 97.667969 352.902344 97.90625 C 353.203125 98.140625 353.488281 98.398438 353.753906 98.671875 C 354.019531 98.945312 354.269531 99.234375 354.5 99.539062 C 354.730469 99.84375 354.941406 100.164062 355.128906 100.496094 C 355.316406 100.828125 355.484375 101.171875 355.628906 101.527344 C 355.773438 101.878906 355.894531 102.242188 355.992188 102.613281 C 356.089844 102.980469 356.160156 103.355469 356.210938 103.734375 C 356.261719 104.113281 356.285156 104.496094 356.285156 104.878906 C 356.285156 105.257812 356.261719 105.640625 356.210938 106.019531 C 356.160156 106.398438 356.089844 106.773438 355.992188 107.144531 C 355.894531 107.511719 355.773438 107.875 355.628906 108.226562 C 355.484375 108.582031 355.316406 108.925781 355.128906 109.257812 C 354.9375 109.589844 354.730469 109.910156 354.5 110.214844 C 354.269531 110.519531 354.019531 110.8125 353.753906 111.085938 C 353.488281 111.359375 353.203125 111.613281 352.902344 111.851562 C 352.601562 112.085938 352.289062 112.304688 351.960938 112.5 L 186.796875 211.488281 L 21.636719 112.5 C 21.308594 112.304688 20.996094 112.085938 20.695312 111.851562 C 20.394531 111.613281 20.109375 111.359375 19.84375 111.085938 C 19.574219 110.8125 19.324219 110.519531 19.097656 110.214844 C 18.867188 109.910156 18.65625 109.589844 18.46875 109.257812 C 18.277344 108.925781 18.113281 108.582031 17.96875 108.226562 C 17.824219 107.875 17.703125 107.511719 17.605469 107.144531 C 17.507812 106.773438 17.433594 106.398438 17.386719 106.019531 C 17.335938 105.640625 17.3125 105.257812 17.3125 104.878906 C 17.3125 104.496094 17.335938 104.113281 17.386719 103.734375 C 17.433594 103.355469 17.507812 102.980469 17.605469 102.613281 C 17.703125 102.242188 17.824219 101.878906 17.96875 101.527344 C 18.113281 101.171875 18.277344 100.828125 18.46875 100.496094 C 18.65625 100.164062 18.867188 99.84375 19.097656 99.539062 C 19.324219 99.234375 19.574219 98.945312 19.84375 98.671875 C 20.109375 98.398438 20.394531 98.140625 20.695312 97.90625 C 20.996094 97.667969 21.308594 97.449219 21.636719 97.253906 L 177.636719 3.757812 C 179.019531 2.925781 180.488281 2.296875 182.042969 1.867188 C 183.601562 1.4375 185.183594 1.21875 186.796875 1.21875 C 188.410156 1.21875 189.996094 1.4375 191.550781 1.867188 C 193.105469 2.296875 194.574219 2.925781 195.957031 3.757812 Z M 186.796875 39.703125 L 78.058594 104.878906 L 186.796875 170.050781 L 295.535156 104.878906 Z M 186.796875 39.703125 " fill-opacity="1" fill-rule="nonzero"/></g></svg>