<svg xmlns="http://www.w3.org/2000/svg" xmlns:xlink="http://www.w3.org/1999/xlink" width="500" zoomAndPan="magnify" viewBox="0 0 375 374.999991" height="500" preserveAspectRatio="xMidYMid meet" version="1.0"><path fill="#f8d568" d="M 278.347656 40.996094 C 278.347656 63.4375 260.140625 81.632812 237.699219 81.632812 C 215.242188 81.632812 197.050781 63.4375 197.050781 40.996094 C 197.050781 18.542969 215.242188 0.347656 237.699219 0.347656 C 260.140625 0.347656 278.347656 18.542969 278.347656 40.996094 " fill-opacity="1" fill-rule="nonzero"/><path fill="#f8d568" d="M 179.019531 187.832031 C 179.019531 210.289062 160.808594 228.484375 138.367188 228.484375 C 115.914062 228.484375 97.71875 210.289062 97.71875 187.832031 C 97.71875 165.390625 115.914062 147.183594 138.367188 147.183594 C 160.808594 147.183594 179.019531 165.390625 179.019531 187.832031 " fill-opacity="1" fill-rule="nonzero"/><path fill="#f8d568" d="M 375 187.832031 C 375 210.289062 356.804688 228.484375 334.351562 228.484375 C 311.910156 228.484375 293.699219 210.289062 293.699219 187.832031 C 293.699219 165.390625 311.910156 147.183594 334.351562 147.183594 C 356.804688 147.183594 375 165.390625 375 187.832031 " fill-opacity="1" fill-rule="nonzero"/><path fill="#f8d568" d="M 274.773438 334.375 C 274.773438 356.832031 256.582031 375.027344 234.125 375.027344 C 211.683594 375.027344 193.476562 356.832031 193.476562 334.375 C 193.476562 311.933594 211.683594 293.742188 234.125 293.742188 C 256.582031 293.742188 274.773438 311.933594 274.773438 334.375 " fill-opacity="1" fill-rule="nonzero"/><path fill="#f8d568" d="M 81.300781 334.375 C 81.300781 356.832031 63.089844 375.027344 40.648438 375.027344 C 18.195312 375.027344 0 356.832031 0 334.375 C 0 311.933594 18.195312 293.742188 40.648438 293.742188 C 63.089844 293.742188 81.300781 311.933594 81.300781 334.375 " fill-opacity="1" fill-rule="nonzero"/><path fill="#f8d568" d="M 178.035156 99.664062 L 174.871094 138.820312 L 210.367188 121.988281 L 199.394531 114.414062 L 212.09375 96.046875 L 201.695312 88.867188 L 189.007812 107.238281 L 178.035156 99.664062 " fill-opacity="1" fill-rule="nonzero"/><path fill="#f8d568" d="M 270.453125 117.871094 L 303.675781 138.820312 L 305.214844 99.578125 L 293.421875 105.773438 L 283.023438 86.011719 L 271.832031 91.902344 L 282.246094 111.660156 L 270.453125 117.871094 " fill-opacity="1" fill-rule="nonzero"/><path fill="#f8d568" d="M 276.035156 249.664062 L 274.773438 288.9375 L 309.402344 270.378906 L 298.082031 263.359375 L 309.859375 244.375 L 299.136719 237.726562 L 287.34375 256.695312 L 276.035156 249.664062 " fill-opacity="1" fill-rule="nonzero"/><path fill="#f8d568" d="M 73.871094 243.996094 L 72.613281 283.253906 L 107.242188 264.707031 L 95.933594 257.691406 L 107.710938 238.707031 L 96.972656 232.042969 L 85.195312 251.027344 L 73.871094 243.996094 " fill-opacity="1" fill-rule="nonzero"/><path fill="#f8d568" d="M 166.1875 262.570312 L 198.925781 284.292969 L 201.371094 245.078125 L 189.433594 251.011719 L 179.5 231.015625 L 168.179688 236.640625 L 178.125 256.636719 L 166.1875 262.570312 " fill-opacity="1" fill-rule="nonzero"/></svg>